<svg width="1200" height="800" viewBox="0 0 1200 800" xmlns="http://www.w3.org/2000/svg">
  <rect width="1200" height="800" fill="#fafafa"/>
  <rect x="140" y="120" width="920" height="560" rx="8" fill="#fff" stroke="#e5e7eb"/>
  <rect x="180" y="160" width="420" height="24" rx="3" fill="#111827"/>
  <rect x="180" y="196" width="780" height="1" fill="#111827"/>
  <rect x="180" y="218" width="140" height="12" rx="2" fill="#111827"/>
  <rect x="180" y="236" width="760" height="10" rx="2" fill="#9ca3af"/>
  <rect x="180" y="252" width="720" height="10" rx="2" fill="#d1d5db"/>
  <rect x="180" y="290" width="160" height="12" rx="2" fill="#111827"/>
  <rect x="180" y="308" width="740" height="10" rx="2" fill="#9ca3af"/>
  <rect x="180" y="324" width="700" height="10" rx="2" fill="#d1d5db"/>
  <rect x="180" y="362" width="160" height="12" rx="2" fill="#111827"/>
  <rect x="180" y="380" width="740" height="10" rx="2" fill="#9ca3af"/>
  <rect x="180" y="396" width="700" height="10" rx="2" fill="#d1d5db"/>
  <rect x="180" y="438" width="760" height="1" fill="#e5e7eb"/>
  <rect x="180" y="458" width="200" height="12" rx="2" fill="#111827"/>
  <rect x="180" y="476" width="420" height="10" rx="2" fill="#9ca3af"/>
  <text x="180" y="560" font-family="Times New Roman, serif" font-size="14" fill="#6b7280">Pré-visualização ABNT Clássico (A4)</text>
</svg>


