<svg width="1200" height="800" viewBox="0 0 1200 800" xmlns="http://www.w3.org/2000/svg">
  <defs>
    <linearGradient id="m" x1="0" x2="1" y1="0" y2="1">
      <stop offset="0%" stop-color="#eef2ff"/>
      <stop offset="100%" stop-color="#ecfeff"/>
    </linearGradient>
  </defs>
  <rect width="1200" height="800" fill="url(#m)"/>
  <rect x="140" y="120" width="920" height="560" rx="8" fill="#fff" stroke="#e2e8f0"/>
  <rect x="180" y="160" width="360" height="28" rx="4" fill="#0f172a"/>
  <rect x="180" y="200" width="260" height="16" rx="3" fill="#334155"/>
  <rect x="180" y="240" width="840" height="2" fill="#e2e8f0"/>
  <rect x="180" y="270" width="400" height="220" rx="6" fill="#f8fafc" stroke="#e2e8f0"/>
  <rect x="620" y="270" width="400" height="220" rx="6" fill="#f8fafc" stroke="#e2e8f0"/>
  <rect x="180" y="510" width="840" height="140" rx="6" fill="#f8fafc" stroke="#e2e8f0"/>
  <rect x="200" y="300" width="360" height="10" rx="3" fill="#cbd5e1"/>
  <rect x="200" y="320" width="340" height="10" rx="3" fill="#e2e8f0"/>
  <rect x="640" y="300" width="360" height="10" rx="3" fill="#cbd5e1"/>
  <rect x="640" y="320" width="340" height="10" rx="3" fill="#e2e8f0"/>
  <rect x="200" y="540" width="780" height="10" rx="3" fill="#cbd5e1"/>
  <rect x="200" y="560" width="740" height="10" rx="3" fill="#e2e8f0"/>
  <text x="180" y="525" font-family="Inter, Arial" font-size="14" fill="#64748b">Pré-visualização Moderno (2 colunas)</text>
</svg>


